PathFileType	4	(X/Y/Z)	Kaydara	
DataRate	CameraRate	NumFrames	NumMarkers	Units	OrigDataRate	OrigDataStartFrame	OrigNumFrames	
60.00	60.00	4	74	mm	60.00	313	201	
Frame#	Time	N_lasi			N_rasi			N_rpsi			N_lpsi			N_fneck			N_bneck			N_fhead			N_rhead			N_lhead			N_rshld			N_relbtop			N_relbext			N_relblow			N_rwrext			N_rwrtop			N_rwrlow			N_lshld			N_lelbext			N_lelblow			N_lelbtop			N_lwrext			N_lwrtop			N_lwrlow			N_rtopleg			N_ltopleg			N_rkneefr			N_rkneebk			N_rkneeis			N_lkneefr			N_lknssbk			N_lkneeis			N_rankfr			N_rankis			N_rankbk			N_lankfr			N_lankbk			N_lankis			D_lasi			D_rasi			D_rpsi			D_lpsi			D_fneck			D_bneck			D_fhead			D_rhead			D_lhead			D_rshld			D_relbtop			D_relbext			D_relblow			D_rwrext			D_rwrtop			D_rwrlow			D_lshld			D_lelbext			D_lelblow			D_lelbtop			D_lwrext			D_lwrtop			D_lwrlow			D_rtopleg			D_ltopleg			D_rkneefr			D_rkneebk			D_rkneeis			D_lkneefr			D_lknssbk			D_lkneeis			D_rankfr			D_rankis			D_rankbk			D_lankfr			D_lankbk			D_lankis			
		X1	Y1	Z1	X2	Y2	Z2	X3	Y3	Z3	X4	Y4	Z4	X5	Y5	Z5	X6	Y6	Z6	X7	Y7	Z7	X8	Y8	Z8	X9	Y9	Z9	X10	Y10	Z10	X11	Y11	Z11	X12	Y12	Z12	X13	Y13	Z13	X14	Y14	Z14	X15	Y15	Z15	X16	Y16	Z16	X17	Y17	Z17	X18	Y18	Z18	X19	Y19	Z19	X20	Y20	Z20	X21	Y21	Z21	X22	Y22	Z22	X23	Y23	Z23	X24	Y24	Z24	X25	Y25	Z25	X26	Y26	Z26	X27	Y27	Z27	X28	Y28	Z28	X29	Y29	Z29	X30	Y30	Z30	X31	Y31	Z31	X32	Y32	Z32	X33	Y33	Z33	X34	Y34	Z34	X35	Y35	Z35	X36	Y36	Z36	X37	Y37	Z37	X38	Y38	Z38	X39	Y39	Z39	X40	Y40	Z40	X41	Y41	Z41	X42	Y42	Z42	X43	Y43	Z43	X44	Y44	Z44	X45	Y45	Z45	X46	Y46	Z46	X47	Y47	Z47	X48	Y48	Z48	X49	Y49	Z49	X50	Y50	Z50	X51	Y51	Z51	X52	Y52	Z52	X53	Y53	Z53	X54	Y54	Z54	X55	Y55	Z55	X56	Y56	Z56	X57	Y57	Z57	X58	Y58	Z58	X59	Y59	Z59	X60	Y60	Z60	X61	Y61	Z61	X62	Y62	Z62	X63	Y63	Z63	X64	Y64	Z64	X65	Y65	Z65	X66	Y66	Z66	X67	Y67	Z67	X68	Y68	Z68	X69	Y69	Z69	X70	Y70	Z70	X71	Y71	Z71	X72	Y72	Z72	X73	Y73	Z73	X74	Y74	Z74	

126	5.200	-1015.64667	1054.69200	877.03979	-1260.16129	1085.61081	949.20105	-1386.70654	1145.59914	693.21991	-1048.04504	1136.97380	596.35822	-1229.66042	1506.05469	665.88692	-1181.57753	1604.89655	764.72420	-1015.56320	1641.30432	958.37730	-1183.80646	1705.36957	861.06697	-1043.32695	1681.51886	795.16510	-1406.93222	1457.24304	859.30084	-1539.56253	1163.51379	809.81644	-1588.63800	1122.40784	814.61655	-1493.47733	1161.79207	885.38673	-1549.68887	858.96484	897.31705	-1513.75793	865.89783	928.83026	-1472.49283	862.89093	904.32060	-956.96342	1453.66257	642.38922	-986.56723	1107.16896	648.12027	-887.83501	1121.84624	674.72473	-917.87895	1114.40651	593.90110	-899.57352	826.63628	702.32025	-894.00383	830.05898	749.66759	-946.93275	836.23024	755.04257	-1405.56442	949.55544	876.31264	-996.74660	975.32768	615.34267	-1267.15599	526.30398	1007.60048	-1341.34415	497.41344	890.21362	-1191.04965	496.47282	901.95030	-1156.52740	458.34454	663.30254	-1139.44847	517.32040	544.95258	-1277.90077	506.97731	589.37820	-1329.64188	127.57434	1055.24994	-1258.37273	127.50834	1024.11224	-1306.71341	91.61784	967.85667	-1224.34532	145.74426	498.16917	-1217.34917	168.30456	419.04648	-1293.06381	169.13578	472.75780	33.00805	1014.80133	-185.75933	265.12897	1046.02448	-349.16763	336.18141	1140.66628	-153.02119	162.63769	1104.72466	-23.75012	87.88101	1524.17603	-224.97189	193.28928	1594.58878	-165.45828	-24.04296	1701.60431	-236.79686	154.22794	1728.94150	-275.24467	114.54248	1716.49521	-125.33374	269.89573	1479.76120	-359.24706	323.97545	1154.20563	-466.32198	256.58033	1155.40916	-429.27711	279.50813	1216.28998	-508.98472	168.49251	1019.95583	-627.36992	133.47095	1064.87473	-641.38641	109.16862	1058.39508	-592.08691	70.93028	1475.55420	15.31821	116.64843	1142.22412	18.53689	67.69192	1185.91423	100.58180	146.10430	1164.51607	90.73306	79.55544	928.67210	152.23634	40.16209	927.82761	130.73131	53.40717	924.76212	80.05484	367.44259	1004.38187	-310.89756	67.91225	978.15598	-45.46019	377.03724	458.75645	-284.86605	456.37280	514.68117	-230.38300	360.66158	486.46900	-153.38386	-0.83853	491.16776	-301.68694	66.21976	471.80882	-205.40457	94.50855	477.29458	-337.05055	526.36055	171.08889	-133.13481	490.76759	181.52952	-73.75173	569.35871	204.81665	-74.69881	-28.82717	165.29396	-376.78082	19.84970	129.30510	-329.88800	29.58729	160.27678	-410.00637 
127	5.217	-1011.09726	1051.32675	895.53902	-1255.15366	1082.95021	971.61095	-1386.88385	1142.22595	716.71127	-1047.76047	1131.91139	614.88323	-1229.11819	1503.22968	685.10368	-1181.03531	1602.07169	783.94096	-1011.00204	1639.37424	973.97850	-1181.10352	1703.18573	880.14908	-1042.09023	1679.24759	811.24420	-1404.73175	1453.29758	881.84677	-1537.96906	1159.71031	832.65915	-1586.77841	1118.25279	837.36771	-1491.35178	1157.28561	908.04611	-1548.26019	854.47807	916.78116	-1511.98807	860.71823	948.05580	-1470.82779	857.92221	923.16643	-958.35281	1451.11298	657.91878	-985.77164	1104.38698	663.40446	-886.26816	1120.16556	686.17386	-919.01161	1113.07777	605.80963	-896.06308	824.46335	711.14136	-889.00757	827.38472	758.74649	-941.44394	833.51761	766.21323	-1400.36285	947.01843	902.55676	-995.34836	968.79402	634.66339	-1259.64371	525.33684	1031.85463	-1336.62201	498.00484	914.72580	-1188.10707	493.26393	924.06006	-1149.06189	449.50706	685.58258	-1136.52443	511.91441	567.57088	-1273.34488	500.58147	615.52662	-1325.84946	123.71219	1068.87070	-1253.52921	124.44960	1039.01405	-1307.92221	92.63355	980.30266	-1223.53188	144.81898	504.67075	-1216.96266	171.50408	426.56143	-1292.72156	170.77616	481.61789	15.99680	1016.27861	-196.32616	246.35712	1047.28104	-361.52775	320.38960	1140.08957	-165.87727	147.15770	1105.07095	-35.10328	70.70799	1524.97223	-232.14733	176.55666	1595.52048	-173.40616	-41.66631	1702.17087	-242.59716	136.25269	1729.88663	-282.53750	97.86921	1717.11777	-132.29358	252.27907	1480.84488	-368.24539	310.08610	1154.48730	-471.81320	243.06034	1155.00282	-434.19167	264.20639	1215.39467	-514.64008	154.74111	1016.78024	-630.19249	118.54330	1060.89882	-643.92334	95.38641	1054.14711	-594.04346	55.31771	1473.89862	7.55343	99.70708	1140.94177	5.76388	52.26863	1182.66724	88.60093	130.51481	1161.35574	78.55051	63.83109	924.40872	135.67308	24.78474	923.85170	113.59203	38.65725	921.68335	63.12231	349.37523	1004.60159	-325.07393	52.55291	979.85596	-56.46742	363.15243	457.52926	-312.28573	439.96498	516.25378	-255.61953	344.99512	485.79948	-179.29005	-14.72433	491.64928	-309.76261	51.54016	472.78526	-213.32645	81.80427	476.64772	-344.22127	520.34882	178.55326	-148.85646	483.52936	189.48328	-90.41053	560.90385	215.85033	-90.79673	-36.05762	162.09797	-381.84547	12.09392	129.00209	-334.44984	22.96889	158.01336	-414.15741 
128	5.233	-1007.48650	1048.15613	914.05991	-1250.43587	1080.38452	994.27002	-1386.78818	1139.96719	740.29289	-1047.30095	1126.77559	633.45116	-1228.37021	1501.21689	704.48532	-1180.28732	1600.05890	803.32260	-1005.24574	1637.96326	989.24591	-1177.93228	1701.34964	899.16748	-1040.90866	1677.25632	826.66847	-1402.03232	1449.81430	904.44267	-1536.07254	1156.48460	855.48347	-1584.48990	1114.79324	859.96765	-1488.67096	1153.59200	930.42198	-1545.89447	850.78835	936.59035	-1509.32022	856.56158	967.51808	-1468.32336	853.99414	942.26486	-959.61594	1449.33624	673.55171	-985.67314	1102.41028	676.74080	-885.22812	1119.02634	697.69150	-920.35393	1112.29652	617.89932	-892.80365	822.76459	719.30763	-884.00917	825.44289	767.10876	-936.24977	831.19293	776.53816	-1394.55444	947.95013	928.36327	-993.23761	961.01517	652.57423	-1252.06314	525.77251	1056.24207	-1334.22180	501.61049	941.81183	-1187.80853	492.56969	944.90410	-1141.40869	440.75928	710.13466	-1131.96404	506.30741	591.67320	-1266.97792	493.69896	643.26065	-1323.55194	119.03522	1075.11818	-1251.27312	118.49601	1045.53642	-1306.21536	92.16600	984.26315	-1222.78984	145.46621	512.42603	-1217.21573	176.45214	435.57007	-1292.11258	173.69303	492.42275	0.29021	1019.71466	-205.08377	227.20697	1049.10728	-372.94495	304.72317	1140.41107	-178.40349	132.02859	1107.46292	-46.28997	53.68381	1526.66931	-239.40237	159.87084	1597.10220	-181.14716	-59.42581	1703.42148	-247.99767	118.00838	1731.63925	-289.63615	80.95024	1718.39737	-139.13679	234.68281	1483.14285	-377.27207	296.54520	1155.70465	-476.44699	229.33416	1155.52368	-438.30414	249.08443	1215.03700	-519.91924	142.67644	1013.48106	-632.50687	105.01019	1056.30890	-645.76111	83.19187	1049.33998	-595.38631	39.67510	1473.07571	-0.24609	84.56667	1139.09477	-7.89932	35.67144	1180.49934	76.31084	114.30445	1159.01718	66.22830	46.56513	921.10924	119.09765	7.95048	920.78423	96.05968	22.33941	919.67453	45.88130	330.95188	1004.72771	-338.70434	37.65593	983.60374	-65.65094	346.80450	457.43813	-343.39592	421.30188	517.61238	-284.81274	326.35185	484.85981	-209.63224	-29.43064	494.17465	-319.39093	34.65462	476.05892	-220.99405	67.46446	479.14310	-351.46828	511.59809	186.92179	-168.31785	473.59932	198.78815	-111.40260	549.68807	228.15592	-111.19767	-41.92602	160.52181	-385.89970	7.00167	128.71041	-335.99609	18.13139	157.25993	-416.33003 
129	5.250	-1003.36777	1045.96237	934.53156	-1245.77599	1079.16267	1016.65291	-1383.15094	1137.48535	764.97406	-1045.92438	1122.48322	650.31166	-1227.08923	1500.19623	723.69499	-1179.00635	1599.03824	822.53227	-999.27818	1637.32574	1004.46594	-1174.35120	1700.45853	918.52287	-1039.43504	1676.31866	842.02202	-1398.54767	1447.31567	926.74210	-1533.74817	1154.34326	878.28110	-1581.78955	1112.41501	882.62917	-1485.59479	1150.97694	952.94724	-1542.86270	848.12653	956.87080	-1505.77209	853.40263	987.28493	-1465.16846	851.01898	961.33904	-960.32013	1448.77930	688.64288	-985.66971	1101.55899	690.03799	-884.70085	1118.40126	708.67043	-921.97296	1112.41440	629.91554	-890.00435	821.71249	726.18080	-880.03990	823.83606	772.35840	-931.74934	829.19296	784.89449	-1387.24762	952.91786	952.14165	-990.39551	954.41879	669.88014	-1242.95662	525.68829	1077.11647	-1331.89270	505.79659	967.88033	-1183.76129	492.92606	963.09029	-1130.26558	432.49298	736.08513	-1125.06821	501.77387	617.98820	-1258.18947	487.30087	672.65869	-1318.42331	115.42264	1079.72496	-1246.55220	116.44884	1049.48624	-1303.59985	92.84147	987.20818	-1220.83160	148.68460	522.66899	-1216.86981	184.01320	447.18266	-1290.23514	178.63707	506.31310	-15.10461	1023.82713	-212.28367	208.20301	1051.04065	-383.43952	289.44376	1141.17973	-191.21521	118.46532	1111.50917	-57.24835	36.78150	1528.74222	-247.00821	143.64570	1599.30191	-189.13702	-76.90643	1704.83231	-253.19658	100.00735	1733.79028	-296.51960	64.42981	1719.95255	-145.72276	217.30734	1486.40701	-386.43387	283.52335	1157.66556	-480.45166	216.32750	1156.95099	-442.14870	234.63165	1215.12993	-524.81441	132.28666	1010.21370	-634.56154	92.99137	1051.61819	-647.37000	72.91165	1044.17404	-596.37497	24.59731	1473.38303	-8.04268	67.81636	1139.13460	-21.00532	18.96898	1179.19289	63.66779	97.34264	1157.58125	54.07926	27.46045	919.36485	102.38731	-10.67234	919.23805	78.33753	5.02809	919.04846	28.73107	312.53822	1004.51706	-351.82194	24.38576	988.27057	-73.34666	326.64726	458.40549	-376.08513	400.29423	518.88775	-316.79232	304.90076	483.11569	-242.63779	-44.38050	497.01988	-326.99757	18.01355	480.25013	-228.03102	52.21806	482.73205	-358.21987	500.31322	196.57410	-189.97911	461.36299	209.31976	-133.98506	536.38741	242.40463	-134.66791	-46.94683	159.64695	-388.61122	1.57725	130.07321	-337.03915	14.04804	157.61620	-417.55371 
